<?xml version="1.0" encoding="utf-8"?>
<!-- Generator: Adobe Illustrator 15.1.0, SVG Export Plug-In . SVG Version: 6.00 Build 0)  -->
<!DOCTYPE svg PUBLIC "-//W3C//DTD SVG 1.1//EN" "http://www.w3.org/Graphics/SVG/1.1/DTD/svg11.dtd">
<svg version="1.1" id="Ebene_1" xmlns="http://www.w3.org/2000/svg" xmlns:xlink="http://www.w3.org/1999/xlink" x="0px" y="0px"
	 width="595.28px" height="841.89px" viewBox="0 0 595.28 841.89" enable-background="new 0 0 595.28 841.89" xml:space="preserve">
<g>
	
		<polyline fill="none" stroke="#96C77D" stroke-width="12" stroke-linecap="square" stroke-linejoin="round" stroke-miterlimit="10" points="
		128.483,510.616 131.363,506.215 134.243,503.237 137.124,502.248 140.003,503.626 142.883,507.459 145.763,513.483 
		148.643,521.088 151.523,529.406 154.403,537.475 157.283,544.422 160.163,549.62 163.043,552.719 165.923,553.515 
		168.803,551.688 171.683,546.509 174.563,536.734 177.443,520.833 180.323,497.612 183.203,467.069 186.084,431.116 
		188.963,393.788 191.844,360.653 194.723,337.509 197.604,328.758 200.483,337.509 203.363,360.653 206.243,393.788 
		209.123,431.116 212.004,467.069 214.883,497.612 217.764,520.833 220.643,536.734 223.523,546.509 226.403,551.688 
		229.283,553.515 232.163,552.719 235.043,549.62 237.924,544.422 240.803,537.475 243.684,529.406 246.563,521.088 
		249.443,513.483 252.323,507.459 255.203,503.626 258.084,502.248 260.963,503.237 263.844,506.215 266.723,510.616 
		269.604,515.805 272.483,521.176 275.363,526.217 278.243,530.55 281.123,533.936 284.004,536.271 286.883,537.568 
		289.764,537.931 292.643,537.53 295.523,536.574 298.403,535.282 301.283,533.867 304.164,532.518 307.043,531.389 
		309.924,530.593 312.803,530.195 315.684,530.217 318.563,530.635 321.443,531.397 324.324,532.43 327.203,533.646 
		330.084,534.961 332.963,536.291 335.844,537.569 338.723,538.744 341.604,539.783 344.482,540.674 347.363,541.418 
		350.244,542.029 353.123,542.527 356.004,542.938 358.883,543.289 361.764,543.604 364.643,543.909 367.523,544.222 
		370.402,544.558 373.283,544.926 376.164,545.335 379.043,545.79 381.924,546.291 384.803,546.834 387.684,547.415 
		390.563,548.022 393.443,548.649 396.324,549.284 399.203,549.921 402.084,550.55 404.963,551.165 407.844,551.765 
		410.723,552.347 413.604,552.914 416.482,553.47 419.363,554.017 422.244,554.558 425.123,555.093 428.004,555.625 
		430.883,556.155 433.764,556.683 436.643,557.21 439.523,557.734 442.402,558.258 445.283,558.781 448.164,559.307 
		451.043,559.838 453.924,560.374 456.803,560.916 459.684,561.463 462.563,562.012 465.443,562.563 468.324,563.114 
		471.203,563.663 474.084,564.209 476.963,564.75 479.844,565.287 482.723,565.822 485.604,566.357 	"/>
</g>
<line fill="none" stroke="#000000" stroke-width="6" stroke-miterlimit="10" x1="146.691" y1="536.775" x2="410.442" y2="273.025"/>
<line fill="none" stroke="#000000" stroke-width="6" stroke-miterlimit="10" x1="186.719" y1="579.434" x2="450.47" y2="315.682"/>
<line fill="none" stroke="#000000" stroke-width="6" stroke-miterlimit="10" x1="188.588" y1="581.588" x2="144.594" y2="534.59"/>
<line fill="none" stroke="#000000" stroke-width="5" stroke-miterlimit="10" x1="452.57" y1="316.369" x2="408.421" y2="272.218"/>
<line fill="none" stroke="#000000" stroke-width="6" stroke-miterlimit="10" x1="317.065" y1="366.758" x2="325.374" y2="375.066"/>
<line fill="none" stroke="#000000" stroke-width="6" stroke-miterlimit="10" x1="327.086" y1="356.734" x2="342.112" y2="371.76"/>
<line fill="none" stroke="#000000" stroke-width="6" stroke-miterlimit="10" x1="307.043" y1="376.78" x2="315.352" y2="385.089"/>
<line fill="none" stroke="#000000" stroke-width="6" stroke-miterlimit="10" x1="297.02" y1="386.801" x2="305.329" y2="395.109"/>
<line fill="none" stroke="#000000" stroke-width="6" stroke-miterlimit="10" x1="287" y1="396.824" x2="295.308" y2="405.132"/>
<line fill="none" stroke="#000000" stroke-width="6" stroke-miterlimit="10" x1="266.841" y1="416.98" x2="281.867" y2="432.006"/>
<line fill="none" stroke="#000000" stroke-width="6" stroke-miterlimit="10" x1="276.976" y1="406.845" x2="285.285" y2="415.153"/>
<line fill="none" stroke="#000000" stroke-width="5" stroke-miterlimit="10" x1="377.189" y1="306.614" x2="385.498" y2="314.922"/>
<line fill="none" stroke="#000000" stroke-width="5" stroke-miterlimit="10" x1="387.21" y1="296.59" x2="402.236" y2="311.616"/>
<line fill="none" stroke="#000000" stroke-width="5" stroke-miterlimit="10" x1="367.167" y1="316.636" x2="375.476" y2="324.945"/>
<line fill="none" stroke="#000000" stroke-width="6" stroke-miterlimit="10" x1="357.144" y1="326.658" x2="365.452" y2="334.966"/>
<line fill="none" stroke="#000000" stroke-width="6" stroke-miterlimit="10" x1="347.122" y1="336.681" x2="355.431" y2="344.989"/>
<line fill="none" stroke="#000000" stroke-width="6" stroke-miterlimit="10" x1="337.1" y1="346.701" x2="345.408" y2="355.01"/>
<line fill="none" stroke="#000000" stroke-width="6" stroke-miterlimit="10" x1="196.98" y1="486.864" x2="205.289" y2="495.173"/>
<line fill="none" stroke="#000000" stroke-width="6" stroke-miterlimit="10" x1="207.001" y1="476.841" x2="222.027" y2="491.866"/>
<line fill="none" stroke="#000000" stroke-width="6" stroke-miterlimit="10" x1="186.958" y1="496.887" x2="195.266" y2="505.195"/>
<line fill="none" stroke="#000000" stroke-width="6" stroke-miterlimit="10" x1="176.935" y1="506.907" x2="185.243" y2="515.216"/>
<line fill="none" stroke="#000000" stroke-width="6" stroke-miterlimit="10" x1="166.914" y1="516.931" x2="175.223" y2="525.238"/>
<line fill="none" stroke="#000000" stroke-width="6" stroke-miterlimit="10" x1="156.749" y1="527.094" x2="165.057" y2="535.402"/>
<line fill="none" stroke="#000000" stroke-width="6" stroke-miterlimit="10" x1="257.104" y1="426.721" x2="265.412" y2="435.029"/>
<line fill="none" stroke="#000000" stroke-width="6" stroke-miterlimit="10" x1="247.082" y1="436.743" x2="255.39" y2="445.052"/>
<line fill="none" stroke="#000000" stroke-width="6" stroke-miterlimit="10" x1="237.058" y1="446.765" x2="245.367" y2="455.073"/>
<line fill="none" stroke="#000000" stroke-width="6" stroke-miterlimit="10" x1="227.037" y1="456.787" x2="235.346" y2="465.096"/>
<line fill="none" stroke="#000000" stroke-width="6" stroke-miterlimit="10" x1="217.015" y1="466.808" x2="225.323" y2="475.116"/>
<text transform="matrix(1 0 0 1 129.5142 465.8408)" fill="#93C67C" stroke="#000000" stroke-width="3" stroke-miterlimit="10" font-family="'Arial-BoldMT'" font-size="110">SimPel</text>
<text transform="matrix(1 0 0 1 200.894 617)"><tspan x="0" y="0" font-family="'MyriadPro-Bold'" font-size="36">Version 1.0.0</tspan><tspan x="1.152" y="86.4" font-family="'MyriadPro-Regular'" font-size="36">Stephan Rein </tspan><tspan x="45.396" y="129.6" font-family="'MyriadPro-Regular'" font-size="36">(c) 2018</tspan></text>
</svg>
